<svg xmlns="http://www.w3.org/2000/svg" version="1.1" xmlns:xlink="http://www.w3.org/1999/xlink" xmlns:svgjs="http://svgjs.dev/svgjs" width="1440" height="1000" preserveAspectRatio="none" viewBox="0 0 1440 1000"><g mask="url(&quot;#SvgjsMask1092&quot;)" fill="none"><rect width="1440" height="1000" x="0" y="0" fill="rgba(255, 255, 255, 1)"></rect><path d="M0 0L523.84 0L0 179.87z" fill="rgba(255, 255, 255, .1)"></path><path d="M0 179.87L523.84 0L691.4000000000001 0L0 506.25z" fill="rgba(255, 255, 255, .075)"></path><path d="M0 506.25L691.4000000000001 0L1141.92 0L0 520.88z" fill="rgba(255, 255, 255, .05)"></path><path d="M0 520.88L1141.92 0L1161.6100000000001 0L0 783.85z" fill="rgba(255, 255, 255, .025)"></path><path d="M1440 1000L1376.8 1000L1440 680.6700000000001z" fill="rgba(0, 0, 0, .1)"></path><path d="M1440 680.6700000000001L1376.8 1000L1173.36 1000L1440 344.2200000000001z" fill="rgba(0, 0, 0, .075)"></path><path d="M1440 344.22L1173.3600000000001 1000L517.5200000000001 1000L1440 200.98000000000002z" fill="rgba(0, 0, 0, .05)"></path><path d="M1440 200.98000000000002L517.52 1000L344.23 1000L1440 116.40000000000002z" fill="rgba(0, 0, 0, .025)"></path></g><defs><mask id="SvgjsMask1092"><rect width="1440" height="1000" fill="#ffffff"></rect></mask></defs></svg>